# AST/ASF file generated using VICON BodyLanguage
# -----------------------------------------------
:version 1.10
:name VICON
:units
  mass 1.0
  length 0.45
  angle deg
:documentation
   .ast/.asf automatically generated from VICON data using
   VICON BodyBuilder and BodyLanguage model FoxedUp or BRILLIANT.MOD
:root
   order TX TY TZ RX RY RZ
   axis XYZ
   position 0 0 0  
   orientation 0 0 0 
:bonedata
  begin
     id 1 
     name lhipjoint
     direction 0.690799 -0.707083 0.151096 
     length 2.54797 
     axis 0 0 0  XYZ
  end
  begin
     id 2 
     name lfemur
     direction 0.34202 -0.939693 0  
     length 7.21646  
     axis 0 0 20  XYZ
    dof rx ry rz
    limits (-160.0 20.0)
           (-70.0 70.0)
           (-60.0 70.0)
  end
  begin
     id 3 
     name ltibia
     direction 0.34202 -0.939693 0   
     length 8.16759   
     axis 0 0 20   XYZ
    dof rx
    limits (-10.0 170.0)
  end
  begin
     id 4 
     name lfoot
     direction 0.0487203 -0.133858 0.989802   
     length 1.93375   
     axis -90 7.62852e-016 20   XYZ
    dof rx rz
    limits (-45.0 90.0)
           (-70.0 20.0)
  end
  begin
     id 5 
     name ltoes
     direction 1.53453e-011 -4.21783e-011 1   
     length 0.979747   
     axis -90 7.62852e-016 20   XYZ
    dof rx
    limits (-90.0 20.0)
  end
  begin
     id 6 
     name rhipjoint
     direction -0.694693 -0.703425 0.150315   
     length 2.56122  
     axis 0 0 0  XYZ 
  end
  begin
     id 7 
     name rfemur
     direction -0.34202 -0.939693 0   
     length 7.36786   
     axis 0 0 -20   XYZ
    dof rx ry rz
    limits (-160.0 20.0)
           (-70.0 70.0)
           (-70.0 60.0)
  end
  begin
     id 8 
     name rtibia
     direction -0.34202 -0.939693 0   
     length 8.07288   
     axis 0 0 -20   XYZ
    dof rx
    limits (-10.0 170.0)
 end
 begin
     id 9 
     name rfoot
     direction -0.0428397 -0.117701 0.992125   
     length 1.88295  
     axis -90 -7.62852e-016 -20   XYZ
    dof rx rz
    limits (-45.0 90.0)
           (-20.0 70.0)
  end
  begin
     id 10 
     name rtoes
     direction -1.53456e-011 -4.2187e-011 1   
     length 0.955578   
     axis -90 -7.62852e-016 -20   XYZ
    dof rx
    limits (-90.0 20.0)
  end
  begin
     id 11 
     name lowerback
     direction 0.0288145 0.999398 -0.0193241   
     length 1.92149   
     axis 0 0 0   XYZ
    dof rx ry rz
    limits (-20.0 45.0)
           (-30.0 30.0)
           (-30.0 30.0)
  end
  begin
     id 12 
     name upperback
     direction 0.0233784 0.998099 0.0570278   
     length 1.90435   
     axis 0 0 0   XYZ
    dof rx ry rz
    limits (-20.0 45.0)
           (-30.0 30.0)
           (-30.0 30.0)
  end
  begin
     id 13 
     name thorax
     direction 0.0096694 0.997833 0.0650817   
     length 1.9111   
     axis 0 0 0   XYZ
    dof rx ry rz
    limits (-20.0 45.0)
           (-30.0 30.0)
           (-30.0 30.0)
  end
  begin
     id 14 
     name lowerneck
     direction 0.00516803 0.999916 0.0118722   
     length 1.74664   
     axis 0 0 0   XYZ
    dof rx ry rz
    limits (-20.0 45.0)
           (-30.0 30.0)
           (-30.0 30.0)
  end
  begin
     id 15 
     name upperneck
     direction -0.0510851 0.996117 -0.071696   
     length 1.68498   
     axis 0 0 0   XYZ
    dof rx ry rz
    limits (-20.0 45.0)
           (-30.0 30.0)
           (-30.0 30.0)
  end
  begin
     id 16
     name head
     direction -0.019188 0.999436 -0.0275702  
     length 1.83483  
     axis 0 0 0   XYZ
    dof rx ry rz
    limits (-20.0 45.0)
           (-30.0 30.0)
           (-30.0 30.0)
  end
  begin
     id 17 
     name lclavicle
     direction 0.967006 0.248456 -0.0562957  
     length 3.39395  
     axis 0 0 0   XYZ
    dof ry rz
    limits (-20.0 10.0)
           (0.0 20.0)
  end
  begin
     id 18 
     name lhumerus
     direction 1 -4.48962e-011 -5.62711e-019   
     length 5.24318   
     axis 180 -30 -90   XYZ
    dof rx ry rz
    limits (-60.0 90.0)
           (-90.0 90.0)
           (-90.0 90.0)
  end
  begin
     id 19
     name lradius
     direction 1 -4.48966e-011 7.90625e-027   
     length 2.98999   
     axis 180 -30 -90   XYZ
    dof rx
    limits (-10.0 170.0)
  end
  begin
     id 20
     name lwrist
     direction 1 -4.48959e-011 1.61068e-026   
     length 1.49499   
     axis -9.31229e-015 90 90   XYZ
    dof ry
    limits (-180.0 0.0)
 end
  begin
     id 21 
     name lhand
     direction 1 -4.49017e-011 3.22136e-026   
     length 0.726745   
     axis -2.0555e-014 90 90   XYZ
    dof rx rz
    limits (-90.0 90.0)
           (-45.0 45.0)
  end
  begin
     id 22 
     name lfingers
     direction 1 -4.4898e-011 6.44272e-026   
     length 0.58592   
     axis -4.11101e-014 90 90   XYZ
    dof rx
    limits (0.0 90.0)
  end
  begin
     id 23
     name lthumb
     direction 0.707107 -6.34922e-011 0.707107   
     length 0.841268   
     axis -90 45 2.85299e-015   XYZ
    dof rx rz
    limits (-45.0 45.0)
           (-45.0 45.0)
  end
  begin
     id 24 
     name rclavicle
     direction -0.972232 0.230238 0.0419005   
     length 3.40416  
     axis 0 0 0   XYZ 
    dof ry rz
    limits (-10.0 20.0)
           (-20.0 0.0)
  end
  begin
     id 25 
     name rhumerus
     direction -1 -4.48976e-011 2.48487e-027  
     length 5.37045   
     axis 180 30 90   XYZ
    dof rx ry rz
    limits (-90.0 60.0)
           (-90.0 90.0)
           (-90.0 90.0)
  end
  begin
     id 26 
     name rradius
     direction -1 -4.48942e-011 7.87951e-027   
     length 2.92792   
     axis 180 30 90   XYZ
    dof rx
    limits (-10.0 170.0)
  end
  begin
     id 27 
     name rwrist
     direction -1 -4.48969e-011 1.61068e-026   
     length 1.46396   
     axis -9.31229e-015 -90 -90   XYZ
    dof ry
    limits (-180.0 0.0)
  end
  begin
     id 28
     name rhand
     direction -1 -4.49043e-011 3.22136e-026   
     length 0.784497   
     axis -2.0555e-014 -90 -90   XYZ
    dof rx rz
    limits (-90.0 90.0)
           (-45.0 45.0)
  end
  begin
     id 29
     name rfingers
     direction -1 -4.48823e-011 6.44272e-026   
     length 0.632482   
     axis -4.11101e-014 -90 -90   XYZ
    dof rx
    limits (0.0 90.0)
  end
  begin
     id 30
     name rthumb
     direction -0.707107 -6.34923e-011 0.707107   
     length 0.908121   
     axis -90 -45 -2.85299e-015   XYZ
    dof rx rz
    limits (-45.0 45.0)
           (-45.0 45.0)
  end
:hierarchy
  begin
    root lhipjoint rhipjoint lowerback
    lhipjoint lfemur
    lfemur ltibia
    ltibia lfoot
    lfoot ltoes
    rhipjoint rfemur
    rfemur rtibia
    rtibia rfoot
    rfoot rtoes
    lowerback upperback
    upperback thorax
    thorax lowerneck lclavicle rclavicle
    lowerneck upperneck
    upperneck head
    lclavicle lhumerus
    lhumerus lradius
    lradius lwrist
    lwrist lhand lthumb
    lhand lfingers
    rclavicle rhumerus
    rhumerus rradius
    rradius rwrist
    rwrist rhand rthumb
    rhand rfingers
  end

#!OML:ASF E:\Style6\Style6.ASF
:FULLY-SPECIFIED
:DEGREES
1996
root 0.41175 16.7981 0.544855 15.2011 0.422584 -1.08616
lowerback 10.3463 -1.06616 2.114
upperback -7.06825 -0.837771 2.15196
thorax -13.6187 -0.460646 1.37259
lowerneck -11.9978 0.447397 2.45785
upperneck 23.5519 1.27355 -4.88977
head 9.43737 0.271918 -1.95933
rclavicle -4.96962e-015 1.59028e-015
rhumerus -76.704 19.8627 -86.9764
rradius 130.038
rwrist -16.3381
rhand 39.2973 -1.95934
rfingers 7.12502
rthumb 61.8101 -13.6877
lclavicle -4.96962e-015 1.59028e-015
lhumerus -78.9113 -24.2575 95.2427
lradius 120.957
lwrist 35.2302
lhand 19.8792 35.0338
lfingers 7.12502
lthumb 44.4226 58.7572
rfemur -42.8272 -21.0868 24.7597
rtibia 51.9712
rfoot -16.9757 8.75226
rtoes -4.26315
lfemur -40.6342 11.6356 -19.3035
ltibia 53.2724
lfoot -21.6518 -2.04461
ltoes -16.6639
1997
root 0.410399 16.7866 0.531204 15.2214 0.395635 -1.09711
lowerback 10.1918 -1.10887 2.03434
upperback -7.02449 -0.912781 2.17873
thorax -13.4682 -0.487555 1.45737
lowerneck -11.4743 0.47532 2.56239
upperneck 23.2431 1.32823 -5.06646
head 9.23391 0.295956 -2.02554
rclavicle -3.45388e-014 1.55052e-014
rhumerus -76.0703 19.8706 -87.3732
rradius 129.329
rwrist -16.9292
rhand 39.9467 -2.40085
rfingers 7.12502
rthumb 62.351 -13.4507
lclavicle -3.45388e-014 1.55052e-014
lhumerus -77.9438 -24.1619 95.3425
lradius 119.872
lwrist 35.961
lhand 20.8695 35.3395
lfingers 7.12502
lthumb 45.3442 58.7022
rfemur -43.002 -21.0203 24.7923
rtibia 52.1621
rfoot -17.0613 8.67845
rtoes -4.57696
lfemur -40.8092 11.6541 -19.3115
ltibia 53.4542
lfoot -21.7124 -1.92568
ltoes -17.1301
1998
root 0.408476 16.7748 0.515622 15.1375 0.325771 -1.04378
lowerback 10.1802 -1.1474 1.86636
upperback -6.94268 -0.996363 2.16923
thorax -13.3605 -0.512394 1.5561
lowerneck -10.9645 0.502137 2.66069
upperneck 22.9546 1.37253 -5.19911
head 9.04068 0.319521 -2.07697
rclavicle 1.14301e-014 -2.5842e-014
rhumerus -75.3963 19.8825 -87.9026
rradius 128.585
rwrist -17.4778
rhand 40.6105 -2.91856
rfingers 7.12502
rthumb 62.8993 -13.2458
lclavicle 1.14301e-014 -2.5842e-014
lhumerus -76.8178 -24.0797 95.4083
lradius 118.652
lwrist 36.8459
lhand 21.5435 35.6773
lfingers 7.12502
lthumb 45.9702 58.7842
rfemur -43.0721 -20.9113 24.6928
rtibia 52.3623
rfoot -17.0944 8.6918
rtoes -4.2425
lfemur -40.8553 11.6514 -19.3593
ltibia 53.6458
lfoot -21.7784 -1.90304
ltoes -16.8547
1999
root 0.403903 16.7614 0.495267 15.0445 0.361404 -1.05907
lowerback 10.1546 -1.22001 1.77192
upperback -6.82216 -1.11254 2.18392
thorax -13.1998 -0.558443 1.64521
lowerneck -10.2967 0.535592 2.74201
upperneck 22.4679 1.42501 -5.33447
head 8.75154 0.349417 -2.12206
rclavicle 1.70955e-014 -1.86858e-014
rhumerus -74.591 19.9894 -88.5202
rradius 127.671
rwrist -17.8434
rhand 40.9325 -2.96598
rfingers 7.12502
rthumb 63.1635 -12.9316
lclavicle 1.70955e-014 -1.86858e-014
lhumerus -75.6057 -24.0026 95.5123
lradius 117.352
lwrist 37.8263
lhand 22.12 36.2892
lfingers 7.12502
lthumb 46.5047 59.1706
rfemur -43.1294 -20.7725 24.6807
rtibia 52.5532
rfoot -17.1669 8.53864
rtoes -4.36509
lfemur -40.9387 11.5677 -19.3014
ltibia 53.8505
lfoot -21.8154 -1.72927
ltoes -17.1896
2000
root 0.39621 16.7487 0.472022 15.0362 0.469842 -1.10031
lowerback 10.0276 -1.31984 1.67884
upperback -6.72285 -1.26367 2.23546
thorax -12.9999 -0.619845 1.77845
lowerneck -9.28024 0.551628 2.8414
upperneck 21.6398 1.46291 -5.56865
head 8.28533 0.372831 -2.19937
rclavicle -1.79403e-014 2.8625e-014
rhumerus -73.6835 20.1368 -89.1358
rradius 126.618
rwrist -17.962
rhand 41.4154 -2.50898
rfingers 7.12502
rthumb 63.5576 -11.9181
lclavicle -1.79403e-014 2.8625e-014
lhumerus -74.3758 -23.8581 95.6879
lradius 115.985
lwrist 38.7791
lhand 22.5756 36.74
lfingers 7.12502
lthumb 46.9265 59.4386
rfemur -43.2884 -20.6468 24.7623
rtibia 52.7235
rfoot -17.2432 8.23711
rtoes -4.7196
lfemur -41.1564 11.4273 -19.2129
ltibia 54.0583
lfoot -21.8098 -1.55985
ltoes -17.5568
2001
root 0.388695 16.7393 0.455298 15.0425 0.426911 -1.22261
lowerback 9.78835 -1.36577 1.59954
upperback -6.59748 -1.33923 2.32289
thorax -12.7013 -0.646089 1.92151
lowerneck -7.97525 0.568761 3.01975
upperneck 20.4229 1.50558 -5.94948
head 7.64631 0.401516 -2.33226
rclavicle -1.61513e-014 1.31198e-014
rhumerus -72.712 20.3015 -89.6913
rradius 125.716
rwrist -18.1726
rhand 42.2618 -2.40915
rfingers 7.12502
rthumb 64.2415 -10.8003
lclavicle -1.61513e-014 1.31198e-014
lhumerus -73.1495 -23.7082 95.9657
lradius 114.627
lwrist 39.678
lhand 22.7041 36.7852
lfingers 7.12502
lthumb 47.0453 59.4314
rfemur -43.4134 -20.3475 24.8841
rtibia 52.8352
rfoot -17.2096 8.07618
rtoes -4.0006
lfemur -41.3325 11.4078 -19.0548
ltibia 54.2432
lfoot -21.8075 -1.47225
ltoes -17.3667
